<svg width="348" height="129" viewBox="0 0 348 129" fill="none" xmlns="http://www.w3.org/2000/svg">
<rect width="348" height="129" rx="64.5" fill="url(#paint0_linear_88_205)"/>
<rect x="4" y="5" width="340" height="119" rx="59.5" fill="white"/>
<g filter="url(#filter0_i_88_205)">
<rect x="11" y="9" width="326" height="111" rx="55.5" fill="url(#paint1_linear_88_205)"/>
</g>
<g filter="url(#filter1_d_88_205)">
<path d="M112.888 54.92C113.72 56.616 114.136 58.504 114.136 60.584C114.136 62.664 113.72 64.552 112.888 66.248C112.056 67.912 110.984 69.24 109.672 70.232C107.016 72.28 104.264 73.304 101.416 73.304H95.416V78.728C95.416 79.464 95.384 80.024 95.32 80.408C95.288 80.76 95.144 81.176 94.888 81.656C94.44 82.52 93.192 82.952 91.144 82.952C88.904 82.952 87.592 82.36 87.208 81.176C87.016 80.632 86.92 79.8 86.92 78.68V52.04C86.92 51.304 86.936 50.76 86.968 50.408C87.032 50.024 87.192 49.592 87.448 49.112C87.896 48.248 89.144 47.816 91.192 47.816H101.464C104.28 47.816 107.016 48.84 109.672 50.888C110.984 51.88 112.056 53.224 112.888 54.92ZM101.464 64.808C102.424 64.808 103.368 64.456 104.296 63.752C105.224 63.048 105.688 61.992 105.688 60.584C105.688 59.176 105.224 58.12 104.296 57.416C103.368 56.68 102.408 56.312 101.416 56.312H95.416V64.808H101.464ZM133.76 47.384C138.496 47.384 142.608 49.096 146.096 52.52C149.584 55.944 151.328 60.2 151.328 65.288C151.328 70.344 149.664 74.664 146.336 78.248C143.008 81.8 138.912 83.576 134.048 83.576C129.184 83.576 125.04 81.816 121.616 78.296C118.224 74.776 116.528 70.584 116.528 65.72C116.528 63.064 117.008 60.584 117.968 58.28C118.928 55.944 120.208 53.992 121.808 52.424C123.408 50.856 125.248 49.624 127.328 48.728C129.408 47.832 131.552 47.384 133.76 47.384ZM125.024 65.48C125.024 68.328 125.936 70.648 127.76 72.44C129.616 74.2 131.68 75.08 133.952 75.08C136.224 75.08 138.272 74.216 140.096 72.488C141.92 70.76 142.832 68.44 142.832 65.528C142.832 62.616 141.904 60.28 140.048 58.52C138.224 56.76 136.176 55.88 133.904 55.88C131.632 55.88 129.584 56.776 127.76 58.568C125.936 60.328 125.024 62.632 125.024 65.48ZM162.963 75.896H176.019C177.075 75.896 177.843 76.024 178.323 76.28C178.803 76.504 179.123 76.872 179.283 77.384C179.443 77.896 179.523 78.584 179.523 79.448C179.523 80.28 179.443 80.952 179.283 81.464C179.123 81.976 178.851 82.328 178.467 82.52C177.859 82.84 177.027 83 175.971 83H158.691C156.451 83 155.139 82.392 154.755 81.176C154.563 80.664 154.467 79.848 154.467 78.728V52.04C154.467 51.304 154.483 50.76 154.515 50.408C154.579 50.024 154.739 49.592 154.995 49.112C155.443 48.248 156.691 47.816 158.739 47.816C160.979 47.816 162.307 48.408 162.723 49.592C162.883 50.136 162.963 50.968 162.963 52.088V75.896ZM182.639 52.04C182.639 51.304 182.655 50.76 182.687 50.408C182.751 50.024 182.911 49.592 183.167 49.112C183.615 48.248 184.863 47.816 186.911 47.816C189.151 47.816 190.479 48.408 190.895 49.592C191.055 50.136 191.135 50.968 191.135 52.088V78.776C191.135 79.544 191.103 80.104 191.039 80.456C191.007 80.808 190.863 81.224 190.607 81.704C190.159 82.568 188.911 83 186.863 83C184.623 83 183.311 82.392 182.927 81.176C182.735 80.664 182.639 79.848 182.639 78.728V52.04ZM216.951 73.784L217.815 73.16C218.903 72.52 219.671 72.2 220.119 72.2C221.111 72.2 222.183 73.096 223.335 74.888C224.039 76.008 224.391 76.904 224.391 77.576C224.391 78.248 224.167 78.808 223.719 79.256C223.303 79.704 222.807 80.104 222.231 80.456C221.655 80.808 221.095 81.144 220.551 81.464C220.039 81.784 218.967 82.2 217.335 82.712C215.703 83.224 214.119 83.48 212.583 83.48C211.079 83.48 209.543 83.288 207.975 82.904C206.439 82.488 204.839 81.816 203.175 80.888C201.543 79.928 200.071 78.776 198.759 77.432C197.447 76.056 196.359 74.312 195.495 72.2C194.663 70.056 194.247 67.736 194.247 65.24C194.247 62.744 194.663 60.488 195.495 58.472C196.327 56.424 197.383 54.744 198.663 53.432C199.975 52.088 201.463 50.968 203.127 50.072C206.263 48.344 209.415 47.48 212.583 47.48C214.087 47.48 215.607 47.72 217.143 48.2C218.711 48.648 219.895 49.112 220.695 49.592L221.847 50.264C222.423 50.616 222.871 50.904 223.191 51.128C224.023 51.8 224.439 52.568 224.439 53.432C224.439 54.264 224.103 55.144 223.431 56.072C222.183 57.8 221.063 58.664 220.071 58.664C219.495 58.664 218.679 58.312 217.623 57.608C216.279 56.52 214.487 55.976 212.247 55.976C210.167 55.976 208.119 56.696 206.103 58.136C205.143 58.84 204.343 59.832 203.703 61.112C203.063 62.392 202.743 63.848 202.743 65.48C202.743 67.08 203.063 68.52 203.703 69.8C204.343 71.08 205.159 72.088 206.151 72.824C208.103 74.232 210.135 74.936 212.247 74.936C213.239 74.936 214.167 74.808 215.031 74.552C215.927 74.296 216.567 74.04 216.951 73.784ZM255.481 48.488C257.049 49.576 257.833 50.632 257.833 51.656C257.833 52.264 257.465 53.112 256.729 54.2L246.361 69.704V78.872C246.361 79.608 246.329 80.168 246.265 80.552C246.233 80.904 246.089 81.32 245.833 81.8C245.577 82.28 245.145 82.616 244.537 82.808C243.929 83 243.113 83.096 242.089 83.096C241.065 83.096 240.249 83 239.641 82.808C239.033 82.616 238.601 82.28 238.345 81.8C238.089 81.288 237.929 80.856 237.865 80.504C237.833 80.12 237.817 79.544 237.817 78.776V69.704L227.449 54.2C226.713 53.112 226.345 52.264 226.345 51.656C226.345 50.632 227.049 49.656 228.457 48.728C229.865 47.768 230.873 47.288 231.481 47.288C232.089 47.288 232.569 47.416 232.921 47.672C233.465 48.024 234.041 48.68 234.649 49.64L242.089 61.544L249.529 49.64C250.137 48.68 250.665 48.056 251.113 47.768C251.561 47.448 252.073 47.288 252.649 47.288C253.257 47.288 254.201 47.688 255.481 48.488Z" fill="white"/>
</g>
<defs>
<filter id="filter0_i_88_205" x="11" y="9" width="326" height="115" filterUnits="userSpaceOnUse" color-interpolation-filters="sRGB">
<feFlood flood-opacity="0" result="BackgroundImageFix"/>
<feBlend mode="normal" in="SourceGraphic" in2="BackgroundImageFix" result="shape"/>
<feColorMatrix in="SourceAlpha" type="matrix" values="0 0 0 0 0 0 0 0 0 0 0 0 0 0 0 0 0 0 127 0" result="hardAlpha"/>
<feOffset dy="4"/>
<feGaussianBlur stdDeviation="2"/>
<feComposite in2="hardAlpha" operator="arithmetic" k2="-1" k3="1"/>
<feColorMatrix type="matrix" values="0 0 0 0 0 0 0 0 0 0 0 0 0 0 0 0 0 0 0.25 0"/>
<feBlend mode="normal" in2="shape" result="effect1_innerShadow_88_205"/>
</filter>
<filter id="filter1_d_88_205" x="82.9199" y="47.2881" width="178.913" height="44.2878" filterUnits="userSpaceOnUse" color-interpolation-filters="sRGB">
<feFlood flood-opacity="0" result="BackgroundImageFix"/>
<feColorMatrix in="SourceAlpha" type="matrix" values="0 0 0 0 0 0 0 0 0 0 0 0 0 0 0 0 0 0 127 0" result="hardAlpha"/>
<feOffset dy="4"/>
<feGaussianBlur stdDeviation="2"/>
<feComposite in2="hardAlpha" operator="out"/>
<feColorMatrix type="matrix" values="0 0 0 0 0 0 0 0 0 0 0 0 0 0 0 0 0 0 0.25 0"/>
<feBlend mode="normal" in2="BackgroundImageFix" result="effect1_dropShadow_88_205"/>
<feBlend mode="normal" in="SourceGraphic" in2="effect1_dropShadow_88_205" result="shape"/>
</filter>
<linearGradient id="paint0_linear_88_205" x1="-2.95146e-06" y1="118" x2="330.528" y2="-45.462" gradientUnits="userSpaceOnUse">
<stop offset="0.49" stop-color="#57D800"/>
<stop offset="1" stop-color="#2E7200"/>
</linearGradient>
<linearGradient id="paint1_linear_88_205" x1="56.59" y1="120" x2="363.894" y2="-82.3478" gradientUnits="userSpaceOnUse">
<stop offset="0.405" stop-color="#57D800"/>
<stop offset="1" stop-color="#3B9300"/>
</linearGradient>
</defs>
</svg>
