<svg width="348" height="129" viewBox="0 0 348 129" fill="none" xmlns="http://www.w3.org/2000/svg">
<rect width="348" height="129" rx="64.5" fill="url(#paint0_linear_88_203)"/>
<rect x="4" y="5" width="340" height="119" rx="59.5" fill="white"/>
<g filter="url(#filter0_i_88_203)">
<rect x="11" y="9" width="326" height="111" rx="55.5" fill="url(#paint1_linear_88_203)"/>
</g>
<g filter="url(#filter1_d_88_203)">
<path d="M118.224 50.312L131.184 77.096C131.728 78.184 132 79 132 79.544C132 80.696 131.072 81.736 129.216 82.664C128.128 83.208 127.264 83.48 126.624 83.48C126.016 83.48 125.504 83.336 125.088 83.048C124.704 82.76 124.416 82.456 124.224 82.136C124.064 81.816 123.824 81.336 123.504 80.696L121.008 75.512H107.712L105.216 80.696C104.896 81.336 104.64 81.8 104.448 82.088C104.288 82.376 104 82.68 103.584 83C103.2 83.288 102.688 83.432 102.048 83.432C101.44 83.432 100.592 83.16 99.504 82.616C97.648 81.72 96.72 80.696 96.72 79.544C96.72 79 96.992 78.184 97.536 77.096L110.496 50.264C110.848 49.528 111.376 48.936 112.08 48.488C112.816 48.04 113.584 47.816 114.384 47.816C116.112 47.816 117.392 48.648 118.224 50.312ZM114.336 61.832L111.168 68.408H117.552L114.336 61.832ZM155.225 49.112C155.545 48.6 156.009 48.248 156.617 48.056C157.225 47.864 157.977 47.768 158.873 47.768C159.801 47.768 160.537 47.848 161.081 48.008C161.625 48.168 162.041 48.36 162.329 48.584C162.617 48.808 162.825 49.144 162.953 49.592C163.145 50.136 163.241 50.968 163.241 52.088V66.584C163.241 70.808 161.929 74.648 159.305 78.104C158.025 79.736 156.377 81.064 154.361 82.088C152.345 83.08 150.105 83.576 147.641 83.576C145.209 83.576 142.985 83.064 140.969 82.04C138.985 81.016 137.369 79.672 136.121 78.008C133.529 74.616 132.233 70.776 132.233 66.488V52.04C132.233 51.272 132.249 50.712 132.281 50.36C132.345 49.976 132.505 49.544 132.761 49.064C133.017 48.584 133.449 48.248 134.057 48.056C134.665 47.864 135.481 47.768 136.505 47.768C137.529 47.768 138.345 47.864 138.953 48.056C139.561 48.248 139.977 48.584 140.201 49.064C140.585 49.8 140.777 50.808 140.777 52.088V66.488C140.777 68.44 141.257 70.296 142.217 72.056C142.697 72.952 143.417 73.672 144.377 74.216C145.337 74.76 146.473 75.032 147.785 75.032C150.121 75.032 151.865 74.168 153.017 72.44C154.169 70.712 154.745 68.712 154.745 66.44V51.752C154.745 50.504 154.905 49.624 155.225 49.112ZM171.333 47.768L180.213 47.816C184.853 47.816 188.933 49.496 192.453 52.856C195.973 56.184 197.733 60.296 197.733 65.192C197.733 70.056 196.005 74.232 192.549 77.72C189.125 81.208 184.965 82.952 180.069 82.952H171.285C169.333 82.952 168.117 82.552 167.637 81.752C167.253 81.08 167.061 80.056 167.061 78.68V51.992C167.061 51.224 167.077 50.664 167.109 50.312C167.173 49.96 167.333 49.544 167.589 49.064C168.037 48.2 169.285 47.768 171.333 47.768ZM180.213 74.456C182.517 74.456 184.597 73.608 186.453 71.912C188.309 70.184 189.237 68.024 189.237 65.432C189.237 62.84 188.325 60.68 186.501 58.952C184.709 57.192 182.597 56.312 180.165 56.312H175.557V74.456H180.213ZM200.858 52.04C200.858 51.304 200.874 50.76 200.906 50.408C200.97 50.024 201.13 49.592 201.386 49.112C201.834 48.248 203.082 47.816 205.13 47.816C207.37 47.816 208.698 48.408 209.114 49.592C209.274 50.136 209.354 50.968 209.354 52.088V78.776C209.354 79.544 209.322 80.104 209.258 80.456C209.226 80.808 209.082 81.224 208.826 81.704C208.378 82.568 207.13 83 205.082 83C202.842 83 201.53 82.392 201.146 81.176C200.954 80.664 200.858 79.848 200.858 78.728V52.04ZM229.698 47.384C234.434 47.384 238.546 49.096 242.034 52.52C245.522 55.944 247.266 60.2 247.266 65.288C247.266 70.344 245.602 74.664 242.274 78.248C238.946 81.8 234.85 83.576 229.986 83.576C225.122 83.576 220.978 81.816 217.554 78.296C214.162 74.776 212.466 70.584 212.466 65.72C212.466 63.064 212.946 60.584 213.906 58.28C214.866 55.944 216.146 53.992 217.746 52.424C219.346 50.856 221.186 49.624 223.266 48.728C225.346 47.832 227.49 47.384 229.698 47.384ZM220.962 65.48C220.962 68.328 221.874 70.648 223.698 72.44C225.554 74.2 227.618 75.08 229.89 75.08C232.162 75.08 234.21 74.216 236.034 72.488C237.858 70.76 238.77 68.44 238.77 65.528C238.77 62.616 237.842 60.28 235.986 58.52C234.162 56.76 232.114 55.88 229.842 55.88C227.57 55.88 225.522 56.776 223.698 58.568C221.874 60.328 220.962 62.632 220.962 65.48Z" fill="white"/>
</g>
<defs>
<filter id="filter0_i_88_203" x="11" y="9" width="326" height="115" filterUnits="userSpaceOnUse" color-interpolation-filters="sRGB">
<feFlood flood-opacity="0" result="BackgroundImageFix"/>
<feBlend mode="normal" in="SourceGraphic" in2="BackgroundImageFix" result="shape"/>
<feColorMatrix in="SourceAlpha" type="matrix" values="0 0 0 0 0 0 0 0 0 0 0 0 0 0 0 0 0 0 127 0" result="hardAlpha"/>
<feOffset dy="4"/>
<feGaussianBlur stdDeviation="2"/>
<feComposite in2="hardAlpha" operator="arithmetic" k2="-1" k3="1"/>
<feColorMatrix type="matrix" values="0 0 0 0 0 0 0 0 0 0 0 0 0 0 0 0 0 0 0.25 0"/>
<feBlend mode="normal" in2="shape" result="effect1_innerShadow_88_203"/>
</filter>
<filter id="filter1_d_88_203" x="92.7197" y="47.384" width="158.546" height="44.192" filterUnits="userSpaceOnUse" color-interpolation-filters="sRGB">
<feFlood flood-opacity="0" result="BackgroundImageFix"/>
<feColorMatrix in="SourceAlpha" type="matrix" values="0 0 0 0 0 0 0 0 0 0 0 0 0 0 0 0 0 0 127 0" result="hardAlpha"/>
<feOffset dy="4"/>
<feGaussianBlur stdDeviation="2"/>
<feComposite in2="hardAlpha" operator="out"/>
<feColorMatrix type="matrix" values="0 0 0 0 0 0 0 0 0 0 0 0 0 0 0 0 0 0 0.25 0"/>
<feBlend mode="normal" in2="BackgroundImageFix" result="effect1_dropShadow_88_203"/>
<feBlend mode="normal" in="SourceGraphic" in2="effect1_dropShadow_88_203" result="shape"/>
</filter>
<linearGradient id="paint0_linear_88_203" x1="-2.95146e-06" y1="118" x2="330.528" y2="-45.462" gradientUnits="userSpaceOnUse">
<stop offset="0.49" stop-color="#57D800"/>
<stop offset="1" stop-color="#2E7200"/>
</linearGradient>
<linearGradient id="paint1_linear_88_203" x1="56.59" y1="120" x2="363.894" y2="-82.3478" gradientUnits="userSpaceOnUse">
<stop offset="0.405" stop-color="#57D800"/>
<stop offset="1" stop-color="#3B9300"/>
</linearGradient>
</defs>
</svg>
