<svg width="348" height="129" viewBox="0 0 348 129" fill="none" xmlns="http://www.w3.org/2000/svg">
<rect width="348" height="129" rx="64.5" fill="url(#paint0_linear_88_204)"/>
<rect x="4" y="5" width="340" height="119" rx="59.5" fill="white"/>
<g filter="url(#filter0_i_88_204)">
<rect x="11" y="9" width="326" height="111" rx="55.5" fill="url(#paint1_linear_88_204)"/>
</g>
<g filter="url(#filter1_d_88_204)">
<path d="M127.032 48.344C128.92 49.272 129.864 50.296 129.864 51.416C129.864 51.928 129.624 52.696 129.144 53.72L115.896 80.6C115.544 81.304 115 81.88 114.264 82.328C113.56 82.744 112.824 82.952 112.056 82.952H111.576C110.776 82.952 110.008 82.744 109.272 82.328C108.568 81.88 108.04 81.304 107.688 80.6L94.44 53.72C93.96 52.696 93.72 51.928 93.72 51.416C93.72 50.296 94.664 49.272 96.552 48.344C97.608 47.8 98.408 47.528 98.952 47.528C99.528 47.528 99.96 47.592 100.248 47.72C100.536 47.848 100.808 48.072 101.064 48.392C101.352 48.776 101.608 49.208 101.832 49.688C102.088 50.136 102.712 51.464 103.704 53.672C104.696 55.848 105.752 58.168 106.872 60.632C108.024 63.096 109.096 65.432 110.088 67.64C111.112 69.816 111.688 71.032 111.816 71.288L121.416 50.264C121.672 49.656 121.896 49.176 122.088 48.824C122.664 47.96 123.368 47.528 124.2 47.528C125.032 47.528 125.976 47.8 127.032 48.344ZM132.514 52.04C132.514 51.304 132.53 50.76 132.562 50.408C132.626 50.024 132.786 49.592 133.042 49.112C133.49 48.248 134.738 47.816 136.786 47.816C139.026 47.816 140.354 48.408 140.77 49.592C140.93 50.136 141.01 50.968 141.01 52.088V78.776C141.01 79.544 140.978 80.104 140.914 80.456C140.882 80.808 140.738 81.224 140.482 81.704C140.034 82.568 138.786 83 136.738 83C134.498 83 133.186 82.392 132.802 81.176C132.61 80.664 132.514 79.848 132.514 78.728V52.04ZM149.114 47.768L157.994 47.816C162.634 47.816 166.714 49.496 170.234 52.856C173.754 56.184 175.514 60.296 175.514 65.192C175.514 70.056 173.786 74.232 170.33 77.72C166.906 81.208 162.746 82.952 157.85 82.952H149.066C147.114 82.952 145.898 82.552 145.418 81.752C145.034 81.08 144.842 80.056 144.842 78.68V51.992C144.842 51.224 144.858 50.664 144.89 50.312C144.954 49.96 145.114 49.544 145.37 49.064C145.818 48.2 147.066 47.768 149.114 47.768ZM157.994 74.456C160.298 74.456 162.378 73.608 164.234 71.912C166.09 70.184 167.018 68.024 167.018 65.432C167.018 62.84 166.106 60.68 164.282 58.952C162.49 57.192 160.378 56.312 157.946 56.312H153.338V74.456H157.994ZM187.135 74.504H201.919C202.655 74.504 203.199 74.536 203.551 74.6C203.935 74.632 204.367 74.776 204.847 75.032C205.711 75.48 206.143 76.728 206.143 78.776C206.143 81.016 205.551 82.328 204.367 82.712C203.823 82.904 202.991 83 201.871 83H182.863C180.623 83 179.311 82.392 178.927 81.176C178.735 80.664 178.639 79.848 178.639 78.728V52.04C178.639 50.408 178.943 49.304 179.551 48.728C180.159 48.12 181.311 47.816 183.007 47.816H201.919C202.655 47.816 203.199 47.848 203.551 47.912C203.935 47.944 204.367 48.088 204.847 48.344C205.711 48.792 206.143 50.04 206.143 52.088C206.143 54.328 205.551 55.64 204.367 56.024C203.823 56.216 202.991 56.312 201.871 56.312H187.135V61.16H196.639C197.375 61.16 197.919 61.192 198.271 61.256C198.655 61.288 199.087 61.432 199.567 61.688C200.431 62.136 200.863 63.384 200.863 65.432C200.863 67.672 200.255 68.984 199.039 69.368C198.495 69.56 197.663 69.656 196.543 69.656H187.135V74.504ZM225.76 47.384C230.496 47.384 234.608 49.096 238.096 52.52C241.584 55.944 243.328 60.2 243.328 65.288C243.328 70.344 241.664 74.664 238.336 78.248C235.008 81.8 230.912 83.576 226.048 83.576C221.184 83.576 217.04 81.816 213.616 78.296C210.224 74.776 208.528 70.584 208.528 65.72C208.528 63.064 209.008 60.584 209.968 58.28C210.928 55.944 212.208 53.992 213.808 52.424C215.408 50.856 217.248 49.624 219.328 48.728C221.408 47.832 223.552 47.384 225.76 47.384ZM217.024 65.48C217.024 68.328 217.936 70.648 219.76 72.44C221.616 74.2 223.68 75.08 225.952 75.08C228.224 75.08 230.272 74.216 232.096 72.488C233.92 70.76 234.832 68.44 234.832 65.528C234.832 62.616 233.904 60.28 232.048 58.52C230.224 56.76 228.176 55.88 225.904 55.88C223.632 55.88 221.584 56.776 219.76 58.568C217.936 60.328 217.024 62.632 217.024 65.48Z" fill="white"/>
</g>
<defs>
<filter id="filter0_i_88_204" x="11" y="9" width="326" height="115" filterUnits="userSpaceOnUse" color-interpolation-filters="sRGB">
<feFlood flood-opacity="0" result="BackgroundImageFix"/>
<feBlend mode="normal" in="SourceGraphic" in2="BackgroundImageFix" result="shape"/>
<feColorMatrix in="SourceAlpha" type="matrix" values="0 0 0 0 0 0 0 0 0 0 0 0 0 0 0 0 0 0 127 0" result="hardAlpha"/>
<feOffset dy="4"/>
<feGaussianBlur stdDeviation="2"/>
<feComposite in2="hardAlpha" operator="arithmetic" k2="-1" k3="1"/>
<feColorMatrix type="matrix" values="0 0 0 0 0 0 0 0 0 0 0 0 0 0 0 0 0 0 0.25 0"/>
<feBlend mode="normal" in2="shape" result="effect1_innerShadow_88_204"/>
</filter>
<filter id="filter1_d_88_204" x="89.7197" y="47.384" width="157.608" height="44.192" filterUnits="userSpaceOnUse" color-interpolation-filters="sRGB">
<feFlood flood-opacity="0" result="BackgroundImageFix"/>
<feColorMatrix in="SourceAlpha" type="matrix" values="0 0 0 0 0 0 0 0 0 0 0 0 0 0 0 0 0 0 127 0" result="hardAlpha"/>
<feOffset dy="4"/>
<feGaussianBlur stdDeviation="2"/>
<feComposite in2="hardAlpha" operator="out"/>
<feColorMatrix type="matrix" values="0 0 0 0 0 0 0 0 0 0 0 0 0 0 0 0 0 0 0.25 0"/>
<feBlend mode="normal" in2="BackgroundImageFix" result="effect1_dropShadow_88_204"/>
<feBlend mode="normal" in="SourceGraphic" in2="effect1_dropShadow_88_204" result="shape"/>
</filter>
<linearGradient id="paint0_linear_88_204" x1="-2.95146e-06" y1="118" x2="330.528" y2="-45.462" gradientUnits="userSpaceOnUse">
<stop offset="0.49" stop-color="#57D800"/>
<stop offset="1" stop-color="#2E7200"/>
</linearGradient>
<linearGradient id="paint1_linear_88_204" x1="56.59" y1="120" x2="363.894" y2="-82.3478" gradientUnits="userSpaceOnUse">
<stop offset="0.405" stop-color="#57D800"/>
<stop offset="1" stop-color="#3B9300"/>
</linearGradient>
</defs>
</svg>
