<svg width="265" height="125" viewBox="0 0 265 125" fill="none" xmlns="http://www.w3.org/2000/svg">
<rect width="265" height="125" rx="62.5" fill="url(#paint0_linear_88_288)"/>
<rect x="3" y="5" width="259" height="115" rx="57.5" fill="white"/>
<g filter="url(#filter0_i_88_288)">
<rect x="8" y="9" width="249" height="107" rx="53.5" fill="url(#paint1_linear_88_288)"/>
</g>
<g filter="url(#filter1_d_88_288)">
<path d="M118.856 46.488C120.424 47.576 121.208 48.632 121.208 49.656C121.208 50.264 120.84 51.112 120.104 52.2L109.736 67.704V76.872C109.736 77.608 109.704 78.168 109.64 78.552C109.608 78.904 109.464 79.32 109.208 79.8C108.952 80.28 108.52 80.616 107.912 80.808C107.304 81 106.488 81.096 105.464 81.096C104.44 81.096 103.624 81 103.016 80.808C102.408 80.616 101.976 80.28 101.72 79.8C101.464 79.288 101.304 78.856 101.24 78.504C101.208 78.12 101.192 77.544 101.192 76.776V67.704L90.824 52.2C90.088 51.112 89.72 50.264 89.72 49.656C89.72 48.632 90.424 47.656 91.832 46.728C93.24 45.768 94.248 45.288 94.856 45.288C95.464 45.288 95.944 45.416 96.296 45.672C96.84 46.024 97.416 46.68 98.024 47.64L105.464 59.544L112.904 47.64C113.512 46.68 114.04 46.056 114.488 45.768C114.936 45.448 115.448 45.288 116.024 45.288C116.632 45.288 117.576 45.688 118.856 46.488ZM142.445 65.352C142.445 67.304 141.949 68.76 140.957 69.72C139.997 70.648 138.925 71.112 137.741 71.112H126.365C126.365 72.008 126.893 72.76 127.949 73.368C129.005 73.976 130.061 74.28 131.117 74.28C132.973 74.28 134.429 74.088 135.485 73.704L136.013 73.512C136.781 73.16 137.421 72.984 137.933 72.984C138.957 72.984 139.837 73.704 140.573 75.144C140.989 76.008 141.197 76.744 141.197 77.352C141.197 80.2 137.789 81.624 130.973 81.624C128.605 81.624 126.493 81.224 124.637 80.424C122.813 79.592 121.389 78.504 120.365 77.16C118.349 74.568 117.341 71.672 117.341 68.472C117.341 64.44 118.637 61.224 121.229 58.824C123.853 56.392 127.117 55.176 131.021 55.176C135.469 55.176 138.733 56.744 140.813 59.88C141.901 61.544 142.445 63.368 142.445 65.352ZM132.317 66.744C133.533 66.744 134.141 66.232 134.141 65.208C134.141 64.472 133.853 63.88 133.277 63.432C132.733 62.984 131.933 62.76 130.877 62.76C129.853 62.76 128.829 63.192 127.805 64.056C126.781 64.888 126.269 65.784 126.269 66.744H132.317ZM145.768 78.744C145.16 78.36 144.856 77.752 144.856 76.92C144.856 76.088 145.464 74.824 146.68 73.128C147.032 72.584 147.592 72.312 148.36 72.312C149.16 72.312 150.232 72.712 151.576 73.512C152.92 74.28 154.136 74.664 155.224 74.664C157.176 74.664 158.152 74.28 158.152 73.512C158.152 72.904 157.08 72.456 154.936 72.168C152.92 71.88 150.92 71.128 148.936 69.912C148.008 69.336 147.24 68.44 146.632 67.224C146.024 65.976 145.72 64.504 145.72 62.808C145.72 57.752 149.192 55.224 156.136 55.224C158.408 55.224 160.744 55.768 163.144 56.856C164.264 57.368 164.824 58.008 164.824 58.776C164.824 59.544 164.472 60.488 163.768 61.608C163.064 62.728 162.344 63.288 161.608 63.288C161.224 63.288 160.504 63.048 159.448 62.568C158.424 62.088 157.304 61.848 156.088 61.848C154.2 61.848 153.256 62.2 153.256 62.904C153.256 63.864 154.344 64.488 156.52 64.776C158.632 65 160.68 65.608 162.664 66.6C163.592 67.048 164.36 67.832 164.968 68.952C165.608 70.04 165.928 71.416 165.928 73.08C165.928 74.744 165.608 76.168 164.968 77.352C164.36 78.504 163.496 79.368 162.376 79.944C160.328 80.936 157.752 81.432 154.648 81.432C151.576 81.432 148.616 80.536 145.768 78.744Z" fill="white"/>
</g>
<defs>
<filter id="filter0_i_88_288" x="8" y="9" width="249" height="111" filterUnits="userSpaceOnUse" color-interpolation-filters="sRGB">
<feFlood flood-opacity="0" result="BackgroundImageFix"/>
<feBlend mode="normal" in="SourceGraphic" in2="BackgroundImageFix" result="shape"/>
<feColorMatrix in="SourceAlpha" type="matrix" values="0 0 0 0 0 0 0 0 0 0 0 0 0 0 0 0 0 0 127 0" result="hardAlpha"/>
<feOffset dy="4"/>
<feGaussianBlur stdDeviation="2"/>
<feComposite in2="hardAlpha" operator="arithmetic" k2="-1" k3="1"/>
<feColorMatrix type="matrix" values="0 0 0 0 0 0 0 0 0 0 0 0 0 0 0 0 0 0 0.25 0"/>
<feBlend mode="normal" in2="shape" result="effect1_innerShadow_88_288"/>
</filter>
<filter id="filter1_d_88_288" x="85.72" y="45.2881" width="84.2083" height="44.3359" filterUnits="userSpaceOnUse" color-interpolation-filters="sRGB">
<feFlood flood-opacity="0" result="BackgroundImageFix"/>
<feColorMatrix in="SourceAlpha" type="matrix" values="0 0 0 0 0 0 0 0 0 0 0 0 0 0 0 0 0 0 127 0" result="hardAlpha"/>
<feOffset dy="4"/>
<feGaussianBlur stdDeviation="2"/>
<feComposite in2="hardAlpha" operator="out"/>
<feColorMatrix type="matrix" values="0 0 0 0 0 0 0 0 0 0 0 0 0 0 0 0 0 0 0.25 0"/>
<feBlend mode="normal" in2="BackgroundImageFix" result="effect1_dropShadow_88_288"/>
<feBlend mode="normal" in="SourceGraphic" in2="effect1_dropShadow_88_288" result="shape"/>
</filter>
<linearGradient id="paint0_linear_88_288" x1="-2.24752e-06" y1="114.341" x2="272.147" y2="8.57191" gradientUnits="userSpaceOnUse">
<stop offset="0.49" stop-color="#57D800"/>
<stop offset="1" stop-color="#2E7200"/>
</linearGradient>
<linearGradient id="paint1_linear_88_288" x1="42.8218" y1="116" x2="307.312" y2="-21.9946" gradientUnits="userSpaceOnUse">
<stop offset="0.405" stop-color="#57D800"/>
<stop offset="1" stop-color="#3B9300"/>
</linearGradient>
</defs>
</svg>
