<svg width="287" height="134" viewBox="0 0 287 134" fill="none" xmlns="http://www.w3.org/2000/svg">
<g filter="url(#filter0_d_10_123)">
<rect x="4" width="279" height="126" rx="63" fill="url(#paint0_linear_10_123)"/>
<rect x="8" y="5" width="271" height="116" rx="58" fill="white"/>
<g filter="url(#filter1_i_10_123)">
<rect x="13" y="9" width="261" height="108" rx="54" fill="url(#paint1_linear_10_123)"/>
</g>
<g filter="url(#filter2_d_10_123)">
<path d="M44.264 79.408C43.1547 78.0427 42.6 76.8267 42.6 75.76C42.6 74.6507 43.5173 73.2 45.352 71.408C46.4187 70.384 47.5493 69.872 48.744 69.872C49.9387 69.872 51.6027 70.9387 53.736 73.072C54.3333 73.7973 55.1867 74.5013 56.296 75.184C57.4053 75.824 58.4293 76.144 59.368 76.144C63.336 76.144 65.32 74.5227 65.32 71.28C65.32 70.2987 64.7653 69.488 63.656 68.848C62.5893 68.1653 61.2453 67.6747 59.624 67.376C58.0027 67.0773 56.2533 66.608 54.376 65.968C52.4987 65.2853 50.7493 64.496 49.128 63.6C47.5067 62.704 46.1413 61.296 45.032 59.376C43.9653 57.4133 43.432 55.0667 43.432 52.336C43.432 48.5813 44.8187 45.3173 47.592 42.544C50.408 39.728 54.2267 38.32 59.048 38.32C61.608 38.32 63.9333 38.6613 66.024 39.344C68.1573 39.984 69.6293 40.6453 70.44 41.328L72.04 42.544C73.3627 43.7813 74.024 44.8267 74.024 45.68C74.024 46.5333 73.512 47.7067 72.488 49.2C71.0373 51.3333 69.544 52.4 68.008 52.4C67.112 52.4 66.0027 51.9733 64.68 51.12C64.552 51.0347 64.296 50.8213 63.912 50.48C63.5707 50.1387 63.2507 49.8613 62.952 49.648C62.056 49.0933 60.904 48.816 59.496 48.816C58.1307 48.816 56.9787 49.1573 56.04 49.84C55.144 50.48 54.696 51.3973 54.696 52.592C54.696 53.744 55.2293 54.6827 56.296 55.408C57.4053 56.1333 58.7707 56.624 60.392 56.88C62.0133 57.136 63.784 57.5413 65.704 58.096C67.624 58.608 69.3947 59.248 71.016 60.016C72.6373 60.784 73.9813 62.128 75.048 64.048C76.1573 65.9253 76.712 68.2507 76.712 71.024C76.712 73.7973 76.1573 76.2507 75.048 78.384C73.9387 80.4747 72.488 82.096 70.696 83.248C67.24 85.5093 63.5493 86.64 59.624 86.64C57.6187 86.64 55.72 86.4053 53.928 85.936C52.136 85.424 50.6853 84.8053 49.576 84.08C47.3147 82.7147 45.736 81.392 44.84 80.112L44.264 79.408ZM80.757 39.024H116.341C117.706 39.024 118.709 39.1947 119.349 39.536C119.989 39.8347 120.416 40.3253 120.629 41.008C120.842 41.6907 120.949 42.5867 120.949 43.696C120.949 44.8053 120.842 45.7013 120.629 46.384C120.416 47.024 120.053 47.472 119.541 47.728C118.773 48.112 117.685 48.304 116.277 48.304H104.053V80.496C104.053 81.4773 104.01 82.2027 103.925 82.672C103.882 83.1413 103.69 83.696 103.349 84.336C103.05 84.9333 102.496 85.36 101.685 85.616C100.874 85.872 99.8077 86 98.485 86C97.1623 86 96.0957 85.872 95.285 85.616C94.517 85.36 93.9623 84.9333 93.621 84.336C93.3223 83.696 93.1303 83.1413 93.045 82.672C93.0023 82.16 92.981 81.4133 92.981 80.432V48.304H80.693C79.3277 48.304 78.325 48.1547 77.685 47.856C77.045 47.5147 76.6183 47.0027 76.405 46.32C76.1917 45.6373 76.085 44.7413 76.085 43.632C76.085 42.5227 76.1917 41.648 76.405 41.008C76.6183 40.3253 76.981 39.856 77.493 39.6C78.261 39.216 79.349 39.024 80.757 39.024ZM141.945 42.416L159.225 78.128C159.95 79.5787 160.313 80.6667 160.313 81.392C160.313 82.928 159.075 84.3147 156.601 85.552C155.15 86.2773 153.998 86.64 153.145 86.64C152.334 86.64 151.651 86.448 151.097 86.064C150.585 85.68 150.201 85.2747 149.944 84.848C149.731 84.4213 149.411 83.7813 148.985 82.928L145.657 76.016H127.929L124.601 82.928C124.174 83.7813 123.833 84.4 123.577 84.784C123.363 85.168 122.979 85.5733 122.425 86C121.913 86.384 121.23 86.576 120.377 86.576C119.566 86.576 118.435 86.2133 116.985 85.488C114.51 84.2933 113.273 82.928 113.273 81.392C113.273 80.6667 113.635 79.5787 114.361 78.128L131.641 42.352C132.11 41.3707 132.814 40.5813 133.753 39.984C134.734 39.3867 135.758 39.088 136.825 39.088C139.129 39.088 140.835 40.1973 141.945 42.416ZM136.761 57.776L132.537 66.544H141.049L136.761 57.776ZM199.714 78.064C200.354 79.6 200.674 80.7093 200.674 81.392C200.674 83.0133 199.351 84.3787 196.706 85.488C195.341 86.0853 194.231 86.384 193.378 86.384C192.567 86.384 191.885 86.192 191.33 85.808C190.818 85.3813 190.434 84.9547 190.178 84.528C189.751 83.7173 188.087 79.856 185.186 72.944L183.202 73.072H175.138V80.304C175.138 81.2853 175.095 82.032 175.01 82.544C174.967 83.0133 174.775 83.568 174.434 84.208C173.837 85.36 172.173 85.936 169.442 85.936C166.455 85.936 164.706 85.1467 164.194 83.568C163.938 82.8427 163.81 81.7333 163.81 80.24V44.72C163.81 43.7387 163.831 43.0133 163.874 42.544C163.959 42.032 164.173 41.456 164.514 40.816C165.111 39.664 166.775 39.088 169.506 39.088H183.33C187.085 39.088 190.733 40.4533 194.274 43.184C195.981 44.5067 197.389 46.2987 198.498 48.56C199.607 50.8213 200.162 53.3387 200.162 56.112C200.162 60.9333 198.562 64.9013 195.362 68.016C196.301 70.2773 197.751 73.6267 199.714 78.064ZM175.138 61.744H183.33C184.567 61.744 185.805 61.2747 187.042 60.336C188.279 59.3973 188.898 57.9893 188.898 56.112C188.898 54.2347 188.279 52.8267 187.042 51.888C185.805 50.9067 184.525 50.416 183.202 50.416H175.138V61.744ZM204.695 39.024H240.279C241.644 39.024 242.647 39.1947 243.287 39.536C243.927 39.8347 244.353 40.3253 244.567 41.008C244.78 41.6907 244.887 42.5867 244.887 43.696C244.887 44.8053 244.78 45.7013 244.567 46.384C244.353 47.024 243.991 47.472 243.479 47.728C242.711 48.112 241.623 48.304 240.215 48.304H227.991V80.496C227.991 81.4773 227.948 82.2027 227.863 82.672C227.82 83.1413 227.628 83.696 227.287 84.336C226.988 84.9333 226.433 85.36 225.623 85.616C224.812 85.872 223.745 86 222.423 86C221.1 86 220.033 85.872 219.223 85.616C218.455 85.36 217.9 84.9333 217.559 84.336C217.26 83.696 217.068 83.1413 216.983 82.672C216.94 82.16 216.919 81.4133 216.919 80.432V48.304H204.631C203.265 48.304 202.263 48.1547 201.623 47.856C200.983 47.5147 200.556 47.0027 200.343 46.32C200.129 45.6373 200.023 44.7413 200.023 43.632C200.023 42.5227 200.129 41.648 200.343 41.008C200.556 40.3253 200.919 39.856 201.431 39.6C202.199 39.216 203.287 39.024 204.695 39.024Z" fill="white"/>
</g>
</g>
<defs>
<filter id="filter0_d_10_123" x="0" y="0" width="287" height="134" filterUnits="userSpaceOnUse" color-interpolation-filters="sRGB">
<feFlood flood-opacity="0" result="BackgroundImageFix"/>
<feColorMatrix in="SourceAlpha" type="matrix" values="0 0 0 0 0 0 0 0 0 0 0 0 0 0 0 0 0 0 127 0" result="hardAlpha"/>
<feOffset dy="4"/>
<feGaussianBlur stdDeviation="2"/>
<feComposite in2="hardAlpha" operator="out"/>
<feColorMatrix type="matrix" values="0 0 0 0 0 0 0 0 0 0 0 0 0 0 0 0 0 0 0.25 0"/>
<feBlend mode="normal" in2="BackgroundImageFix" result="effect1_dropShadow_10_123"/>
<feBlend mode="normal" in="SourceGraphic" in2="effect1_dropShadow_10_123" result="shape"/>
</filter>
<filter id="filter1_i_10_123" x="13" y="9" width="261" height="112" filterUnits="userSpaceOnUse" color-interpolation-filters="sRGB">
<feFlood flood-opacity="0" result="BackgroundImageFix"/>
<feBlend mode="normal" in="SourceGraphic" in2="BackgroundImageFix" result="shape"/>
<feColorMatrix in="SourceAlpha" type="matrix" values="0 0 0 0 0 0 0 0 0 0 0 0 0 0 0 0 0 0 127 0" result="hardAlpha"/>
<feOffset dy="4"/>
<feGaussianBlur stdDeviation="2"/>
<feComposite in2="hardAlpha" operator="arithmetic" k2="-1" k3="1"/>
<feColorMatrix type="matrix" values="0 0 0 0 0 0 0 0 0 0 0 0 0 0 0 0 0 0 0.25 0"/>
<feBlend mode="normal" in2="shape" result="effect1_innerShadow_10_123"/>
</filter>
<filter id="filter2_d_10_123" x="38.6" y="38.32" width="210.286" height="56.32" filterUnits="userSpaceOnUse" color-interpolation-filters="sRGB">
<feFlood flood-opacity="0" result="BackgroundImageFix"/>
<feColorMatrix in="SourceAlpha" type="matrix" values="0 0 0 0 0 0 0 0 0 0 0 0 0 0 0 0 0 0 127 0" result="hardAlpha"/>
<feOffset dy="4"/>
<feGaussianBlur stdDeviation="2"/>
<feComposite in2="hardAlpha" operator="out"/>
<feColorMatrix type="matrix" values="0 0 0 0 0 0 0 0 0 0 0 0 0 0 0 0 0 0 0.25 0"/>
<feBlend mode="normal" in2="BackgroundImageFix" result="effect1_dropShadow_10_123"/>
<feBlend mode="normal" in="SourceGraphic" in2="effect1_dropShadow_10_123" result="shape"/>
</filter>
<linearGradient id="paint0_linear_10_123" x1="257.51" y1="19.2761" x2="25.0283" y2="101.778" gradientUnits="userSpaceOnUse">
<stop stop-color="#013E99"/>
<stop offset="0.55" stop-color="#0267FF"/>
</linearGradient>
<linearGradient id="paint1_linear_10_123" x1="250.154" y1="25.5224" x2="37.2241" y2="107.992" gradientUnits="userSpaceOnUse">
<stop stop-color="#013E99"/>
<stop offset="0.55" stop-color="#0267FF"/>
</linearGradient>
</defs>
</svg>
