<svg width="287" height="137" viewBox="0 0 287 137" fill="none" xmlns="http://www.w3.org/2000/svg">
<g filter="url(#filter0_d_10_124)">
<rect x="4" width="279" height="129" rx="64.5" fill="url(#paint0_linear_10_124)"/>
<rect x="8" y="5" width="271" height="119" rx="59.5" fill="white"/>
<g filter="url(#filter1_i_10_124)">
<rect x="13" y="9" width="261" height="111" rx="55.5" fill="url(#paint1_linear_10_124)"/>
</g>
<g filter="url(#filter2_d_10_124)">
<path d="M55.432 47.384C60.168 47.384 64.28 49.096 67.768 52.52C71.256 55.944 73 60.2 73 65.288C73 70.344 71.336 74.664 68.008 78.248C64.68 81.8 60.584 83.576 55.72 83.576C50.856 83.576 46.712 81.816 43.288 78.296C39.896 74.776 38.2 70.584 38.2 65.72C38.2 63.064 38.68 60.584 39.64 58.28C40.6 55.944 41.88 53.992 43.48 52.424C45.08 50.856 46.92 49.624 49 48.728C51.08 47.832 53.224 47.384 55.432 47.384ZM46.696 65.48C46.696 68.328 47.608 70.648 49.432 72.44C51.288 74.2 53.352 75.08 55.624 75.08C57.896 75.08 59.944 74.216 61.768 72.488C63.592 70.76 64.504 68.44 64.504 65.528C64.504 62.616 63.576 60.28 61.72 58.52C59.896 56.76 57.848 55.88 55.576 55.88C53.304 55.88 51.256 56.776 49.432 58.568C47.608 60.328 46.696 62.632 46.696 65.48ZM102.107 54.92C102.939 56.616 103.355 58.504 103.355 60.584C103.355 62.664 102.939 64.552 102.107 66.248C101.275 67.912 100.203 69.24 98.8907 70.232C96.2348 72.28 93.4828 73.304 90.6348 73.304H84.6348V78.728C84.6348 79.464 84.6028 80.024 84.5388 80.408C84.5068 80.76 84.3628 81.176 84.1068 81.656C83.6588 82.52 82.4108 82.952 80.3628 82.952C78.1228 82.952 76.8108 82.36 76.4268 81.176C76.2348 80.632 76.1388 79.8 76.1388 78.68V52.04C76.1388 51.304 76.1548 50.76 76.1868 50.408C76.2508 50.024 76.4108 49.592 76.6668 49.112C77.1148 48.248 78.3628 47.816 80.4108 47.816H90.6828C93.4988 47.816 96.2348 48.84 98.8907 50.888C100.203 51.88 101.275 53.224 102.107 54.92ZM90.6828 64.808C91.6428 64.808 92.5868 64.456 93.5148 63.752C94.4428 63.048 94.9068 61.992 94.9068 60.584C94.9068 59.176 94.4428 58.12 93.5148 57.416C92.5868 56.68 91.6268 56.312 90.6348 56.312H84.6348V64.808H90.6828ZM106.755 47.768H133.443C134.467 47.768 135.219 47.896 135.699 48.152C136.179 48.376 136.499 48.744 136.659 49.256C136.819 49.768 136.899 50.44 136.899 51.272C136.899 52.104 136.819 52.776 136.659 53.288C136.499 53.768 136.227 54.104 135.843 54.296C135.267 54.584 134.451 54.728 133.395 54.728H124.227V78.872C124.227 79.608 124.195 80.152 124.131 80.504C124.099 80.856 123.955 81.272 123.699 81.752C123.475 82.2 123.059 82.52 122.451 82.712C121.843 82.904 121.043 83 120.051 83C119.059 83 118.259 82.904 117.651 82.712C117.075 82.52 116.659 82.2 116.403 81.752C116.179 81.272 116.035 80.856 115.971 80.504C115.939 80.12 115.923 79.56 115.923 78.824V54.728H106.707C105.683 54.728 104.931 54.616 104.451 54.392C103.971 54.136 103.651 53.752 103.491 53.24C103.331 52.728 103.251 52.056 103.251 51.224C103.251 50.392 103.331 49.736 103.491 49.256C103.651 48.744 103.923 48.392 104.307 48.2C104.883 47.912 105.699 47.768 106.755 47.768ZM139.561 52.04C139.561 51.304 139.577 50.76 139.609 50.408C139.673 50.024 139.833 49.592 140.089 49.112C140.537 48.248 141.785 47.816 143.833 47.816C146.073 47.816 147.401 48.408 147.817 49.592C147.977 50.136 148.057 50.968 148.057 52.088V78.776C148.057 79.544 148.025 80.104 147.961 80.456C147.929 80.808 147.785 81.224 147.529 81.704C147.081 82.568 145.833 83 143.785 83C141.545 83 140.233 82.392 139.849 81.176C139.657 80.664 139.561 79.848 139.561 78.728V52.04ZM168.401 47.384C173.137 47.384 177.249 49.096 180.737 52.52C184.225 55.944 185.969 60.2 185.969 65.288C185.969 70.344 184.305 74.664 180.977 78.248C177.649 81.8 173.553 83.576 168.689 83.576C163.825 83.576 159.681 81.816 156.257 78.296C152.865 74.776 151.169 70.584 151.169 65.72C151.169 63.064 151.649 60.584 152.609 58.28C153.569 55.944 154.849 53.992 156.449 52.424C158.049 50.856 159.889 49.624 161.969 48.728C164.049 47.832 166.193 47.384 168.401 47.384ZM159.665 65.48C159.665 68.328 160.577 70.648 162.401 72.44C164.257 74.2 166.321 75.08 168.593 75.08C170.865 75.08 172.913 74.216 174.737 72.488C176.561 70.76 177.473 68.44 177.473 65.528C177.473 62.616 176.545 60.28 174.689 58.52C172.865 56.76 170.817 55.88 168.545 55.88C166.273 55.88 164.225 56.776 162.401 58.568C160.577 60.328 159.665 62.632 159.665 65.48ZM211.812 49.304C212.132 48.728 212.596 48.344 213.204 48.152C213.812 47.96 214.564 47.864 215.46 47.864C216.388 47.864 217.124 47.944 217.668 48.104C218.244 48.264 218.66 48.456 218.916 48.68C219.204 48.904 219.412 49.24 219.54 49.688C219.732 50.2 219.828 51.016 219.828 52.136V78.776C219.828 79.544 219.796 80.104 219.732 80.456C219.7 80.808 219.556 81.224 219.3 81.704C218.852 82.568 217.604 83 215.556 83C214.308 83 213.444 82.904 212.964 82.712C212.484 82.52 212.084 82.216 211.764 81.8C204.564 72.2 199.828 65.928 197.556 62.984V78.776C197.556 79.544 197.524 80.104 197.46 80.456C197.428 80.808 197.284 81.224 197.028 81.704C196.58 82.568 195.332 83 193.284 83C191.3 83 190.084 82.568 189.636 81.704C189.38 81.224 189.22 80.792 189.156 80.408C189.124 80.024 189.108 79.464 189.108 78.728V51.944C189.108 50.728 189.252 49.848 189.54 49.304C189.86 48.728 190.324 48.344 190.932 48.152C191.54 47.96 192.324 47.864 193.284 47.864C194.244 47.864 194.996 47.96 195.54 48.152C196.116 48.312 196.516 48.504 196.74 48.728C196.868 48.824 197.236 49.24 197.844 49.976C204.596 59.16 209.108 65.224 211.38 68.168V51.944C211.38 50.728 211.524 49.848 211.812 49.304ZM224.182 78.056C223.35 77.032 222.934 76.12 222.934 75.32C222.934 74.488 223.622 73.4 224.998 72.056C225.798 71.288 226.646 70.904 227.542 70.904C228.438 70.904 229.686 71.704 231.286 73.304C231.734 73.848 232.374 74.376 233.206 74.888C234.038 75.368 234.806 75.608 235.51 75.608C238.486 75.608 239.974 74.392 239.974 71.96C239.974 71.224 239.558 70.616 238.726 70.136C237.926 69.624 236.918 69.256 235.702 69.032C234.486 68.808 233.174 68.456 231.766 67.976C230.358 67.464 229.046 66.872 227.83 66.2C226.614 65.528 225.59 64.472 224.758 63.032C223.958 61.56 223.558 59.8 223.558 57.752C223.558 54.936 224.598 52.488 226.678 50.408C228.79 48.296 231.654 47.24 235.27 47.24C237.19 47.24 238.934 47.496 240.502 48.008C242.102 48.488 243.206 48.984 243.814 49.496L245.014 50.408C246.006 51.336 246.502 52.12 246.502 52.76C246.502 53.4 246.118 54.28 245.35 55.4C244.262 57 243.142 57.8 241.99 57.8C241.318 57.8 240.486 57.48 239.494 56.84C239.398 56.776 239.206 56.616 238.918 56.36C238.662 56.104 238.422 55.896 238.198 55.736C237.526 55.32 236.662 55.112 235.606 55.112C234.582 55.112 233.718 55.368 233.014 55.88C232.342 56.36 232.006 57.048 232.006 57.944C232.006 58.808 232.406 59.512 233.206 60.056C234.038 60.6 235.062 60.968 236.278 61.16C237.494 61.352 238.822 61.656 240.262 62.072C241.702 62.456 243.03 62.936 244.246 63.512C245.462 64.088 246.47 65.096 247.27 66.536C248.102 67.944 248.518 69.688 248.518 71.768C248.518 73.848 248.102 75.688 247.27 77.288C246.438 78.856 245.35 80.072 244.006 80.936C241.414 82.632 238.646 83.48 235.702 83.48C234.198 83.48 232.774 83.304 231.43 82.952C230.086 82.568 228.998 82.104 228.166 81.56C226.47 80.536 225.286 79.544 224.614 78.584L224.182 78.056Z" fill="white"/>
</g>
</g>
<defs>
<filter id="filter0_d_10_124" x="0" y="0" width="287" height="137" filterUnits="userSpaceOnUse" color-interpolation-filters="sRGB">
<feFlood flood-opacity="0" result="BackgroundImageFix"/>
<feColorMatrix in="SourceAlpha" type="matrix" values="0 0 0 0 0 0 0 0 0 0 0 0 0 0 0 0 0 0 127 0" result="hardAlpha"/>
<feOffset dy="4"/>
<feGaussianBlur stdDeviation="2"/>
<feComposite in2="hardAlpha" operator="out"/>
<feColorMatrix type="matrix" values="0 0 0 0 0 0 0 0 0 0 0 0 0 0 0 0 0 0 0.25 0"/>
<feBlend mode="normal" in2="BackgroundImageFix" result="effect1_dropShadow_10_124"/>
<feBlend mode="normal" in="SourceGraphic" in2="effect1_dropShadow_10_124" result="shape"/>
</filter>
<filter id="filter1_i_10_124" x="13" y="9" width="261" height="115" filterUnits="userSpaceOnUse" color-interpolation-filters="sRGB">
<feFlood flood-opacity="0" result="BackgroundImageFix"/>
<feBlend mode="normal" in="SourceGraphic" in2="BackgroundImageFix" result="shape"/>
<feColorMatrix in="SourceAlpha" type="matrix" values="0 0 0 0 0 0 0 0 0 0 0 0 0 0 0 0 0 0 127 0" result="hardAlpha"/>
<feOffset dy="4"/>
<feGaussianBlur stdDeviation="2"/>
<feComposite in2="hardAlpha" operator="arithmetic" k2="-1" k3="1"/>
<feColorMatrix type="matrix" values="0 0 0 0 0 0 0 0 0 0 0 0 0 0 0 0 0 0 0.25 0"/>
<feBlend mode="normal" in2="shape" result="effect1_innerShadow_10_124"/>
</filter>
<filter id="filter2_d_10_124" x="34.2" y="47.24" width="218.318" height="44.336" filterUnits="userSpaceOnUse" color-interpolation-filters="sRGB">
<feFlood flood-opacity="0" result="BackgroundImageFix"/>
<feColorMatrix in="SourceAlpha" type="matrix" values="0 0 0 0 0 0 0 0 0 0 0 0 0 0 0 0 0 0 127 0" result="hardAlpha"/>
<feOffset dy="4"/>
<feGaussianBlur stdDeviation="2"/>
<feComposite in2="hardAlpha" operator="out"/>
<feColorMatrix type="matrix" values="0 0 0 0 0 0 0 0 0 0 0 0 0 0 0 0 0 0 0.25 0"/>
<feBlend mode="normal" in2="BackgroundImageFix" result="effect1_dropShadow_10_124"/>
<feBlend mode="normal" in="SourceGraphic" in2="effect1_dropShadow_10_124" result="shape"/>
</filter>
<linearGradient id="paint0_linear_10_124" x1="4" y1="118" x2="289" y2="5" gradientUnits="userSpaceOnUse">
<stop offset="0.49" stop-color="#57D800"/>
<stop offset="1" stop-color="#2E7200"/>
</linearGradient>
<linearGradient id="paint1_linear_10_124" x1="49.5" y1="120" x2="325.5" y2="-25.5" gradientUnits="userSpaceOnUse">
<stop offset="0.405" stop-color="#57D800"/>
<stop offset="1" stop-color="#3B9300"/>
</linearGradient>
</defs>
</svg>
