<svg width="287" height="134" viewBox="0 0 287 134" fill="none" xmlns="http://www.w3.org/2000/svg">
<g filter="url(#filter0_d_10_125)">
<rect x="4" width="279" height="126" rx="63" fill="#FF9401"/>
<rect x="8" y="5" width="271" height="116" rx="58" fill="white"/>
<g filter="url(#filter1_i_10_125)">
<rect x="13" y="9" width="261" height="108" rx="54" fill="url(#paint0_linear_10_125)"/>
</g>
<g filter="url(#filter2_d_10_125)">
<path d="M81.888 74.672H101.6C102.581 74.672 103.307 74.7147 103.776 74.8C104.288 74.8427 104.864 75.0347 105.504 75.376C106.656 75.9733 107.232 77.6373 107.232 80.368C107.232 83.3547 106.443 85.104 104.864 85.616C104.139 85.872 103.029 86 101.536 86H76.192C73.2053 86 71.456 85.1893 70.944 83.568C70.688 82.8853 70.56 81.7973 70.56 80.304V44.72C70.56 42.544 70.9653 41.072 71.776 40.304C72.5867 39.4933 74.1227 39.088 76.384 39.088H101.6C102.581 39.088 103.307 39.1307 103.776 39.216C104.288 39.2587 104.864 39.4507 105.504 39.792C106.656 40.3893 107.232 42.0533 107.232 44.784C107.232 47.7707 106.443 49.52 104.864 50.032C104.139 50.288 103.029 50.416 101.536 50.416H81.888V56.88H94.56C95.5413 56.88 96.2667 56.9227 96.736 57.008C97.248 57.0507 97.824 57.2427 98.464 57.584C99.616 58.1813 100.192 59.8453 100.192 62.576C100.192 65.5627 99.3813 67.312 97.76 67.824C97.0347 68.08 95.9253 68.208 94.432 68.208H81.888V74.672ZM140.237 62.256L153.101 76.4C154.551 78.0213 155.277 79.3867 155.277 80.496C155.277 81.6053 154.445 82.9067 152.781 84.4C151.159 85.8933 149.773 86.64 148.621 86.64C147.511 86.64 146.21 85.7867 144.717 84.08L132.557 70.128L120.397 84.08C118.861 85.7867 117.538 86.64 116.429 86.64C115.362 86.64 113.975 85.8933 112.269 84.4C110.605 82.864 109.773 81.5627 109.773 80.496C109.773 79.4293 110.519 78.064 112.013 76.4L124.877 62.256L112.013 48.112C110.519 46.5333 109.773 45.1893 109.773 44.08C109.773 42.9707 110.605 41.6693 112.269 40.176C113.933 38.64 115.319 37.872 116.429 37.872C117.581 37.872 118.903 38.7253 120.397 40.432L132.557 54.384L144.717 40.432C146.253 38.7253 147.554 37.872 148.621 37.872C149.73 37.872 151.117 38.6187 152.781 40.112C154.445 41.6053 155.277 42.928 155.277 44.08C155.277 45.232 154.551 46.576 153.101 48.112L140.237 62.256ZM158.81 44.72C158.81 43.7387 158.831 43.0133 158.874 42.544C158.959 42.032 159.173 41.456 159.514 40.816C160.111 39.664 161.775 39.088 164.506 39.088C167.493 39.088 169.263 39.8773 169.818 41.456C170.031 42.1813 170.138 43.2907 170.138 44.784V80.368C170.138 81.392 170.095 82.1387 170.01 82.608C169.967 83.0773 169.775 83.632 169.434 84.272C168.837 85.424 167.173 86 164.442 86C161.455 86 159.706 85.1893 159.194 83.568C158.938 82.8853 158.81 81.7973 158.81 80.304V44.72ZM178.32 39.024H213.904C215.269 39.024 216.272 39.1947 216.912 39.536C217.552 39.8347 217.978 40.3253 218.192 41.008C218.405 41.6907 218.512 42.5867 218.512 43.696C218.512 44.8053 218.405 45.7013 218.192 46.384C217.978 47.024 217.616 47.472 217.104 47.728C216.336 48.112 215.248 48.304 213.84 48.304H201.616V80.496C201.616 81.4773 201.573 82.2027 201.488 82.672C201.445 83.1413 201.253 83.696 200.912 84.336C200.613 84.9333 200.058 85.36 199.248 85.616C198.437 85.872 197.37 86 196.048 86C194.725 86 193.658 85.872 192.848 85.616C192.08 85.36 191.525 84.9333 191.184 84.336C190.885 83.696 190.693 83.1413 190.608 82.672C190.565 82.16 190.544 81.4133 190.544 80.432V48.304H178.256C176.89 48.304 175.888 48.1547 175.248 47.856C174.608 47.5147 174.181 47.0027 173.968 46.32C173.754 45.6373 173.648 44.7413 173.648 43.632C173.648 42.5227 173.754 41.648 173.968 41.008C174.181 40.3253 174.544 39.856 175.056 39.6C175.824 39.216 176.912 39.024 178.32 39.024Z" fill="white"/>
</g>
</g>
<defs>
<filter id="filter0_d_10_125" x="0" y="0" width="287" height="134" filterUnits="userSpaceOnUse" color-interpolation-filters="sRGB">
<feFlood flood-opacity="0" result="BackgroundImageFix"/>
<feColorMatrix in="SourceAlpha" type="matrix" values="0 0 0 0 0 0 0 0 0 0 0 0 0 0 0 0 0 0 127 0" result="hardAlpha"/>
<feOffset dy="4"/>
<feGaussianBlur stdDeviation="2"/>
<feComposite in2="hardAlpha" operator="out"/>
<feColorMatrix type="matrix" values="0 0 0 0 0 0 0 0 0 0 0 0 0 0 0 0 0 0 0.25 0"/>
<feBlend mode="normal" in2="BackgroundImageFix" result="effect1_dropShadow_10_125"/>
<feBlend mode="normal" in="SourceGraphic" in2="effect1_dropShadow_10_125" result="shape"/>
</filter>
<filter id="filter1_i_10_125" x="13" y="9" width="261" height="112" filterUnits="userSpaceOnUse" color-interpolation-filters="sRGB">
<feFlood flood-opacity="0" result="BackgroundImageFix"/>
<feBlend mode="normal" in="SourceGraphic" in2="BackgroundImageFix" result="shape"/>
<feColorMatrix in="SourceAlpha" type="matrix" values="0 0 0 0 0 0 0 0 0 0 0 0 0 0 0 0 0 0 127 0" result="hardAlpha"/>
<feOffset dy="4"/>
<feGaussianBlur stdDeviation="2"/>
<feComposite in2="hardAlpha" operator="arithmetic" k2="-1" k3="1"/>
<feColorMatrix type="matrix" values="0 0 0 0 0 0 0 0 0 0 0 0 0 0 0 0 0 0 0.25 0"/>
<feBlend mode="normal" in2="shape" result="effect1_innerShadow_10_125"/>
</filter>
<filter id="filter2_d_10_125" x="66.56" y="37.872" width="155.952" height="56.768" filterUnits="userSpaceOnUse" color-interpolation-filters="sRGB">
<feFlood flood-opacity="0" result="BackgroundImageFix"/>
<feColorMatrix in="SourceAlpha" type="matrix" values="0 0 0 0 0 0 0 0 0 0 0 0 0 0 0 0 0 0 127 0" result="hardAlpha"/>
<feOffset dy="4"/>
<feGaussianBlur stdDeviation="2"/>
<feComposite in2="hardAlpha" operator="out"/>
<feColorMatrix type="matrix" values="0 0 0 0 0 0 0 0 0 0 0 0 0 0 0 0 0 0 0.25 0"/>
<feBlend mode="normal" in2="BackgroundImageFix" result="effect1_dropShadow_10_125"/>
<feBlend mode="normal" in="SourceGraphic" in2="effect1_dropShadow_10_125" result="shape"/>
</filter>
<linearGradient id="paint0_linear_10_125" x1="55.5" y1="125.27" x2="271.203" y2="4.02327" gradientUnits="userSpaceOnUse">
<stop offset="0.675" stop-color="#FF9300"/>
<stop offset="1" stop-color="#C67200"/>
</linearGradient>
</defs>
</svg>
